<svg width="159" height="111" version="1.1" xmlns="http://www.w3.org/2000/svg" desc="Created with imagetracer.js version 1.2.6" ><path fill="rgb(0,0,0)" stroke="rgb(0,0,0)" stroke-width="1" opacity="0" d="M 0 0 L 84 0.5 L 58 28.5 L 58 31 L 59.5 31 L 131.5 98 L 158.5 69 L 159 111 L 74 110.5 L 101 80.5 L 29.5 14 L 26.5 13 L 0.5 41 L 0 0 Z " /><path fill="rgb(0,0,0)" stroke="rgb(0,0,0)" stroke-width="1" opacity="0" d="M 86.5 0 L 159 0 L 159 66.5 L 153.5 62 L 86.5 1 L 86.5 0 Z " /><path fill="rgb(0,0,0)" stroke="rgb(0,0,0)" stroke-width="1" opacity="0" d="M 0 44 L 1.5 44 L 73 110.5 L 0 111 L 0 44 Z " /><path fill="rgb(0,72,239)" stroke="rgb(0,72,239)" stroke-width="1" opacity="0.4980392156862745" d="M 84.5 0 L 87.5 1 L 139 49.5 L 126.5 38 L 87.5 2 L 84.5 1 L 78 6.5 L 84.5 0 Z " /><path fill="rgb(0,72,239)" stroke="rgb(0,72,239)" stroke-width="1" opacity="0.4980392156862745" d="M 77.5 8 L 66 20.5 L 59 28.5 L 58.5 31 L 58 28.5 L 77.5 8 Z " /><path fill="rgb(0,72,239)" stroke="rgb(0,72,239)" stroke-width="1" opacity="0.4980392156862745" d="M 26.5 13 L 29.5 14 L 68 50.5 L 55.5 39 L 29.5 15 L 26.5 14 L 20 19.5 L 26.5 13 Z " /><path fill="rgb(0,72,239)" stroke="rgb(0,72,239)" stroke-width="1" opacity="0.4980392156862745" d="M 19.5 21 L 8 33.5 L 1 41.5 L 0.5 44 L 0 41.5 L 19.5 21 Z " /><path fill="rgb(0,72,239)" stroke="rgb(0,72,239)" stroke-width="1" opacity="0.4980392156862745" d="M 60.5 31 L 71.5 43 L 60.5 31 Z " /><path fill="rgb(0,72,239)" stroke="rgb(0,72,239)" stroke-width="1" opacity="0.4980392156862745" d="M 73.5 43 L 125 91.5 L 112.5 80 Q 90.4 62.6 73.5 43 Z " /><path fill="rgb(0,72,239)" stroke="rgb(0,72,239)" stroke-width="1" opacity="0.4980392156862745" d="M 2.5 44 L 13.5 56 L 2.5 44 Z " /><path fill="rgb(0,72,239)" stroke="rgb(0,72,239)" stroke-width="1" opacity="0.4980392156862745" d="M 140.5 50 L 159 67.5 L 149.5 78 L 158 68.5 L 153.5 63 L 140.5 50 Z " /><path fill="rgb(0,72,239)" stroke="rgb(0,72,239)" stroke-width="1" opacity="0.4980392156862745" d="M 69.5 51 L 80.5 63 L 69.5 51 Z " /><path fill="rgb(0,72,239)" stroke="rgb(0,72,239)" stroke-width="1" opacity="0.4980392156862745" d="M 15.5 56 L 67 104.5 L 54.5 93 Q 32.4 75.6 15.5 56 Z " /><path fill="rgb(0,72,239)" stroke="rgb(0,72,239)" stroke-width="1" opacity="0.4980392156862745" d="M 82.5 63 L 101 80.5 L 91.5 91 L 100 81.5 L 95.5 76 L 82.5 63 Z " /><path fill="rgb(0,72,239)" stroke="rgb(0,72,239)" stroke-width="1" opacity="0.4980392156862745" d="M 148.5 79 L 137 91.5 L 131.5 98 L 126.5 92 L 131.5 97 L 136 92.5 L 148.5 79 Z " /><path fill="rgb(0,72,239)" stroke="rgb(0,72,239)" stroke-width="1" opacity="0.4980392156862745" d="M 90.5 92 L 79.5 104 L 90.5 92 Z " /><path fill="rgb(0,72,239)" stroke="rgb(0,72,239)" stroke-width="1" opacity="0.4980392156862745" d="M 68.5 105 L 73.5 110 L 79 105.5 L 73.5 111 L 68.5 105 Z " /><path fill="rgb(0,72,239)" stroke="rgb(0,72,239)" stroke-width="1" opacity="1" d="M 84.5 1 L 87.5 2 L 158 67.5 L 131.5 97 L 60.5 31 L 59 31 L 59 28.5 L 84.5 1 Z " /><path fill="rgb(0,72,239)" stroke="rgb(0,72,239)" stroke-width="1" opacity="1" d="M 26.5 14 L 29.5 15 L 100 80.5 L 73.5 110 L 2.5 44 L 1 44 L 1 41.5 L 26.5 14 Z " /></svg>